<svg width="44" height="44" viewBox="0 0 44 44" fill="none" xmlns="http://www.w3.org/2000/svg">
<circle cx="22" cy="22" r="22" fill="#F8B500"/>
<path d="M22 31.3333C27.1547 31.3333 31.3333 27.1547 31.3333 22C31.3333 16.8453 27.1547 12.6666 22 12.6666C16.8454 12.6666 12.6667 16.8453 12.6667 22C12.6667 27.1547 16.8454 31.3333 22 31.3333ZM22 33.6666C15.5567 33.6666 10.3333 28.4432 10.3333 22C10.3333 15.5567 15.5567 10.3333 22 10.3333C28.4433 10.3333 33.6667 15.5567 33.6667 22C33.6667 28.4432 28.4433 33.6666 22 33.6666ZM22 24.3333C20.7113 24.3333 19.6667 23.2887 19.6667 22C19.6667 20.7113 20.7113 19.6666 22 19.6666C23.2887 19.6666 24.3333 20.7113 24.3333 22C24.3333 23.2887 23.2887 24.3333 22 24.3333Z" fill="#FFFEFD"/>
</svg>
