<svg width="44" height="44" viewBox="0 0 44 44" fill="none" xmlns="http://www.w3.org/2000/svg">
<circle cx="22" cy="22" r="22" fill="#F8B500"/>
<path d="M22 12.6666C18.7933 12.6666 15.9626 14.2839 14.2818 16.75H17.3333V19.0833H10.3333V12.0833H12.6667V14.9992C14.7944 12.1669 18.1822 10.3333 22 10.3333C28.4433 10.3333 33.6667 15.5567 33.6667 22H31.3333C31.3333 16.8453 27.1547 12.6666 22 12.6666ZM12.6667 22C12.6667 27.1547 16.8453 31.3333 22 31.3333C25.2067 31.3333 28.0374 29.716 29.7182 27.25H26.6667V24.9166H33.6667V31.9166H31.3333V29.0007C29.2056 31.833 25.8178 33.6666 22 33.6666C15.5567 33.6666 10.3333 28.4432 10.3333 22H12.6667Z" fill="#FFFEFD"/>
</svg>
