<svg width="32" height="32" viewBox="0 0 32 32" fill="none" xmlns="http://www.w3.org/2000/svg">
<g clip-path="url(#clip0_1688_40)">
<path d="M32 16C32 24.8 24.8 32 16 32C7.2 32 0 24.8 0 16C0 7.2 7.2 0 16 0C24.8 0 32 7.2 32 16Z" fill="#4353FF"/>
<path d="M20.88 13.944C20.88 13.944 19.496 18.28 19.392 18.648C19.352 18.28 18.344 10.488 18.344 10.488C15.984 10.488 14.728 12.16 14.064 13.944C14.064 13.944 12.384 18.296 12.248 18.664C12.24 18.32 11.992 13.992 11.992 13.992C11.848 11.816 9.864 10.496 8.256 10.496L10.192 22.304C12.664 22.296 13.992 20.624 14.688 18.848C14.688 18.848 16.168 15.008 16.232 14.832C16.248 15 17.296 22.304 17.296 22.304C19.768 22.304 21.104 20.736 21.824 19.024L25.28 10.488C22.832 10.488 21.544 12.16 20.88 13.944Z" fill="white"/>
</g>
<defs>
<clipPath id="clip0_1688_40">
<rect width="32" height="32" fill="white"/>
</clipPath>
</defs>
</svg>
