<svg width="32" height="32" viewBox="0 0 32 32" fill="none" xmlns="http://www.w3.org/2000/svg">
<path d="M28.629 9.52095C28.6484 9.80095 28.6484 10.0809 28.6484 10.3635C28.6484 18.9739 22.0935 28.9042 10.1077 28.9042V28.899C6.56707 28.9042 3.09997 27.89 0.119324 25.9777C0.634162 26.0397 1.15158 26.0706 1.67029 26.0719C4.60449 26.0745 7.45481 25.09 9.76319 23.2771C6.97481 23.2242 4.52965 21.4061 3.67545 18.7519C4.65223 18.9403 5.65868 18.9016 6.61739 18.6397C3.57739 18.0255 1.39029 15.3545 1.39029 12.2526C1.39029 12.2242 1.39029 12.1971 1.39029 12.17C2.2961 12.6745 3.31029 12.9545 4.34771 12.9855C1.48448 11.0719 0.601904 7.26288 2.33094 4.28482C5.63932 8.35579 10.5206 10.8306 15.7606 11.0926C15.2355 8.82933 15.9529 6.45772 17.6458 4.86675C20.2703 2.39966 24.398 2.52611 26.8651 5.14933C28.3245 4.86159 29.7232 4.32611 31.0032 3.5674C30.5167 5.07579 29.4987 6.35708 28.1387 7.17127C29.4303 7.01901 30.6922 6.67321 31.8806 6.14546C31.0058 7.45643 29.9038 8.59837 28.629 9.52095Z" fill="#1D9BF0"/>
</svg>
