<svg width="32" height="32" viewBox="0 0 32 32" fill="none" xmlns="http://www.w3.org/2000/svg">
<path d="M18.0499 16.0003C18.0499 21.0188 14.0093 25.0871 9.02511 25.0871C4.04097 25.0871 0 21.0179 0 16.0003C0 10.9828 4.04067 6.91328 9.02511 6.91328C14.0096 6.91328 18.0499 10.9818 18.0499 16.0003Z" fill="black"/>
<path d="M27.9504 16.0003C27.9504 20.7242 25.9301 24.5551 23.4379 24.5551C20.9457 24.5551 18.9253 20.7242 18.9253 16.0003C18.9253 11.2765 20.9454 7.44559 23.4376 7.44559C25.9298 7.44559 27.9501 11.2753 27.9501 16.0003" fill="black"/>
<path d="M32 16.0003C32 20.2317 31.2896 23.6641 30.4129 23.6641C29.5363 23.6641 28.8262 20.2327 28.8262 16.0003C28.8262 11.768 29.5366 8.33664 30.4129 8.33664C31.2893 8.33664 32 11.7677 32 16.0003Z" fill="black"/>
</svg>
